<svg width="512" height="512" viewBox="0 0 512 512" xmlns="http://www.w3.org/2000/svg" role="img" aria-labelledby="title desc">
  <title id="title">Nuke Alert Symbol</title>
  <desc id="desc">Modern nuclear symbol icon in single orange tone.</desc>
  <defs>
    <filter id="softGlow" x="-40%" y="-40%" width="180%" height="180%">
      <feGaussianBlur stdDeviation="3" result="blur"/>
      <feMerge>
        <feMergeNode in="blur"/>
        <feMergeNode in="SourceGraphic"/>
      </feMerge>
    </filter>
  </defs>

  <g filter="url(#softGlow)">
    <circle cx="256" cy="256" r="182" fill="none" stroke="#ea580c" stroke-width="16"/>

    <path fill="#ea580c" d="M256 112 C284 112 308 127 320 151 L289 203 C281 193 269 186 256 186 C243 186 231 193 223 203 L192 151 C204 127 228 112 256 112 Z"/>
    <path fill="#ea580c" d="M391 320 C377 345 351 359 325 357 L294 305 C307 303 318 296 325 285 C332 274 334 261 331 248 L391 248 C400 272 398 298 391 320 Z"/>
    <path fill="#ea580c" d="M121 320 C114 298 112 272 121 248 L181 248 C178 261 180 274 187 285 C194 296 205 303 218 305 L187 357 C161 359 135 345 121 320 Z"/>

    <circle cx="256" cy="256" r="38" fill="#ea580c" stroke="#ea580c" stroke-width="7"/>
    <circle cx="256" cy="256" r="23" fill="#ea580c"/>
  </g>
</svg>
